<?xml version="1.0" encoding="UTF-8"?>
<svg width="568px" height="477px" viewBox="0 0 568 477" version="1.1" xmlns="http://www.w3.org/2000/svg" xmlns:xlink="http://www.w3.org/1999/xlink">
    <!-- Generator: Sketch 57.1 (83088) - https://sketch.com -->
    <title>Group 107</title>
    <desc>Created with Sketch.</desc>
    <defs>
        <path d="M0.618,108.706 C0.618,168.668 49.226,217.277 109.187,217.277 L109.187,217.277 C169.15,217.277 217.758,168.668 217.758,108.706 L217.758,108.706 C217.758,48.745 169.15,0.137 109.187,0.137 L109.187,0.137 C49.226,0.137 0.618,48.745 0.618,108.706 M24.934,108.706 C24.934,62.175 62.656,24.453 109.187,24.453 L109.187,24.453 C155.72,24.453 193.441,62.175 193.441,108.706 L193.441,108.706 C193.441,155.239 155.72,192.959 109.187,192.959 L109.187,192.959 C62.656,192.959 24.934,155.239 24.934,108.706" id="path-1"></path>
        <path d="M0.618,108.706 C0.618,168.668 49.226,217.277 109.187,217.277 L109.187,217.277 C169.15,217.277 217.758,168.668 217.758,108.706 L217.758,108.706 C217.758,48.745 169.15,0.137 109.187,0.137 L109.187,0.137 C49.226,0.137 0.618,48.745 0.618,108.706 M24.934,108.706 C24.934,62.175 62.656,24.453 109.187,24.453 L109.187,24.453 C155.72,24.453 193.441,62.175 193.441,108.706 L193.441,108.706 C193.441,155.239 155.72,192.959 109.187,192.959 L109.187,192.959 C62.656,192.959 24.934,155.239 24.934,108.706" id="path-3"></path>
        <path d="M0.618,108.706 C0.618,168.668 49.226,217.277 109.187,217.277 L109.187,217.277 C169.15,217.277 217.758,168.668 217.758,108.706 L217.758,108.706 C217.758,48.745 169.15,0.137 109.187,0.137 L109.187,0.137 C49.226,0.137 0.618,48.745 0.618,108.706 M24.934,108.706 C24.934,62.175 62.656,24.453 109.187,24.453 L109.187,24.453 C155.72,24.453 193.441,62.175 193.441,108.706 L193.441,108.706 C193.441,155.239 155.72,192.959 109.187,192.959 L109.187,192.959 C62.656,192.959 24.934,155.239 24.934,108.706" id="path-5"></path>
        <path d="M0.618,108.706 C0.618,168.668 49.226,217.277 109.187,217.277 L109.187,217.277 C169.15,217.277 217.758,168.668 217.758,108.706 L217.758,108.706 C217.758,48.745 169.15,0.137 109.187,0.137 L109.187,0.137 C49.226,0.137 0.618,48.745 0.618,108.706 M24.934,108.706 C24.934,62.175 62.656,24.453 109.187,24.453 L109.187,24.453 C155.72,24.453 193.441,62.175 193.441,108.706 L193.441,108.706 C193.441,155.239 155.72,192.959 109.187,192.959 L109.187,192.959 C62.656,192.959 24.934,155.239 24.934,108.706" id="path-7"></path>
        <path d="M0.618,108.706 C0.618,168.668 49.226,217.277 109.187,217.277 L109.187,217.277 C169.15,217.277 217.758,168.668 217.758,108.706 L217.758,108.706 C217.758,48.745 169.15,0.137 109.187,0.137 L109.187,0.137 C49.226,0.137 0.618,48.745 0.618,108.706 M15.744,108.706 C15.744,57.099 57.58,15.263 109.187,15.263 L109.187,15.263 C160.796,15.263 202.631,57.099 202.631,108.706 L202.631,108.706 C202.631,160.315 160.796,202.15 109.187,202.15 L109.187,202.15 C57.58,202.15 15.744,160.315 15.744,108.706" id="path-9"></path>
        <path d="M0.618,108.706 C0.618,168.668 49.226,217.277 109.187,217.277 L109.187,217.277 C169.15,217.277 217.758,168.668 217.758,108.706 L217.758,108.706 C217.758,48.745 169.15,0.137 109.187,0.137 L109.187,0.137 C49.226,0.137 0.618,48.745 0.618,108.706 M15.744,108.706 C15.744,57.099 57.58,15.263 109.187,15.263 L109.187,15.263 C160.796,15.263 202.631,57.099 202.631,108.706 L202.631,108.706 C202.631,160.315 160.796,202.15 109.187,202.15 L109.187,202.15 C57.58,202.15 15.744,160.315 15.744,108.706" id="path-11"></path>
        <path d="M0.618,108.706 C0.618,168.668 49.226,217.277 109.187,217.277 L109.187,217.277 C169.15,217.277 217.758,168.668 217.758,108.706 L217.758,108.706 C217.758,48.745 169.15,0.137 109.187,0.137 L109.187,0.137 C49.226,0.137 0.618,48.745 0.618,108.706 M15.744,108.706 C15.744,57.099 57.58,15.263 109.187,15.263 L109.187,15.263 C160.796,15.263 202.631,57.099 202.631,108.706 L202.631,108.706 C202.631,160.315 160.796,202.15 109.187,202.15 L109.187,202.15 C57.58,202.15 15.744,160.315 15.744,108.706" id="path-13"></path>
        <path d="M0.618,108.706 C0.618,168.668 49.226,217.277 109.187,217.277 L109.187,217.277 C169.15,217.277 217.758,168.668 217.758,108.706 L217.758,108.706 C217.758,48.745 169.15,0.137 109.187,0.137 L109.187,0.137 C49.226,0.137 0.618,48.745 0.618,108.706 M15.744,108.706 C15.744,57.099 57.58,15.263 109.187,15.263 L109.187,15.263 C160.796,15.263 202.631,57.099 202.631,108.706 L202.631,108.706 C202.631,160.315 160.796,202.15 109.187,202.15 L109.187,202.15 C57.58,202.15 15.744,160.315 15.744,108.706" id="path-15"></path>
        <path d="M0.618,108.706 C0.618,168.668 49.226,217.277 109.187,217.277 L109.187,217.277 C169.15,217.277 217.758,168.668 217.758,108.706 L217.758,108.706 C217.758,48.745 169.15,0.137 109.187,0.137 L109.187,0.137 C49.226,0.137 0.618,48.745 0.618,108.706 M15.744,108.706 C15.744,57.099 57.58,15.263 109.187,15.263 L109.187,15.263 C160.796,15.263 202.631,57.099 202.631,108.706 L202.631,108.706 C202.631,160.315 160.796,202.15 109.187,202.15 L109.187,202.15 C57.58,202.15 15.744,160.315 15.744,108.706" id="path-17"></path>
        <path d="M0.618,108.706 C0.618,168.668 49.226,217.277 109.187,217.277 L109.187,217.277 C169.15,217.277 217.758,168.668 217.758,108.706 L217.758,108.706 C217.758,48.745 169.15,0.137 109.187,0.137 L109.187,0.137 C49.226,0.137 0.618,48.745 0.618,108.706 M15.744,108.706 C15.744,57.099 57.58,15.263 109.187,15.263 L109.187,15.263 C160.796,15.263 202.631,57.099 202.631,108.706 L202.631,108.706 C202.631,160.315 160.796,202.15 109.187,202.15 L109.187,202.15 C57.58,202.15 15.744,160.315 15.744,108.706" id="path-19"></path>
        <path d="M0.618,108.706 C0.618,168.668 49.226,217.277 109.187,217.277 L109.187,217.277 C169.15,217.277 217.758,168.668 217.758,108.706 L217.758,108.706 C217.758,48.745 169.15,0.137 109.187,0.137 L109.187,0.137 C49.226,0.137 0.618,48.745 0.618,108.706 M15.744,108.706 C15.744,57.099 57.58,15.263 109.187,15.263 L109.187,15.263 C160.796,15.263 202.631,57.099 202.631,108.706 L202.631,108.706 C202.631,160.315 160.796,202.15 109.187,202.15 L109.187,202.15 C57.58,202.15 15.744,160.315 15.744,108.706" id="path-21"></path>
        <path d="M0.618,108.706 C0.618,168.668 49.226,217.277 109.187,217.277 L109.187,217.277 C169.15,217.277 217.758,168.668 217.758,108.706 L217.758,108.706 C217.758,48.745 169.15,0.137 109.187,0.137 L109.187,0.137 C49.226,0.137 0.618,48.745 0.618,108.706 M15.744,108.706 C15.744,57.099 57.58,15.263 109.187,15.263 L109.187,15.263 C160.796,15.263 202.631,57.099 202.631,108.706 L202.631,108.706 C202.631,160.315 160.796,202.15 109.187,202.15 L109.187,202.15 C57.58,202.15 15.744,160.315 15.744,108.706" id="path-23"></path>
        <path d="M0.618,108.706 C0.618,168.668 49.226,217.277 109.187,217.277 L109.187,217.277 C169.15,217.277 217.758,168.668 217.758,108.706 L217.758,108.706 C217.758,48.745 169.15,0.137 109.187,0.137 L109.187,0.137 C49.226,0.137 0.618,48.745 0.618,108.706 M15.744,108.706 C15.744,57.099 57.58,15.263 109.187,15.263 L109.187,15.263 C160.796,15.263 202.631,57.099 202.631,108.706 L202.631,108.706 C202.631,160.315 160.796,202.15 109.187,202.15 L109.187,202.15 C57.58,202.15 15.744,160.315 15.744,108.706" id="path-25"></path>
        <path d="M0.618,108.706 C0.618,168.668 49.226,217.277 109.187,217.277 L109.187,217.277 C169.15,217.277 217.758,168.668 217.758,108.706 L217.758,108.706 C217.758,48.745 169.15,0.137 109.187,0.137 L109.187,0.137 C49.226,0.137 0.618,48.745 0.618,108.706 M15.744,108.706 C15.744,57.099 57.58,15.263 109.187,15.263 L109.187,15.263 C160.796,15.263 202.631,57.099 202.631,108.706 L202.631,108.706 C202.631,160.315 160.796,202.15 109.187,202.15 L109.187,202.15 C57.58,202.15 15.744,160.315 15.744,108.706" id="path-27"></path>
        <path d="M0.618,108.706 C0.618,168.668 49.226,217.277 109.187,217.277 L109.187,217.277 C169.15,217.277 217.758,168.668 217.758,108.706 L217.758,108.706 C217.758,48.745 169.15,0.137 109.187,0.137 L109.187,0.137 C49.226,0.137 0.618,48.745 0.618,108.706 M15.744,108.706 C15.744,57.099 57.58,15.263 109.187,15.263 L109.187,15.263 C160.796,15.263 202.631,57.099 202.631,108.706 L202.631,108.706 C202.631,160.315 160.796,202.15 109.187,202.15 L109.187,202.15 C57.58,202.15 15.744,160.315 15.744,108.706" id="path-29"></path>
        <path d="M0.618,108.706 C0.618,168.668 49.226,217.277 109.187,217.277 L109.187,217.277 C169.15,217.277 217.758,168.668 217.758,108.706 L217.758,108.706 C217.758,48.745 169.15,0.137 109.187,0.137 L109.187,0.137 C49.226,0.137 0.618,48.745 0.618,108.706 M15.744,108.706 C15.744,57.099 57.58,15.263 109.187,15.263 L109.187,15.263 C160.796,15.263 202.631,57.099 202.631,108.706 L202.631,108.706 C202.631,160.315 160.796,202.15 109.187,202.15 L109.187,202.15 C57.58,202.15 15.744,160.315 15.744,108.706" id="path-31"></path>
        <path d="M0.618,108.706 C0.618,168.668 49.226,217.277 109.187,217.277 L109.187,217.277 C169.15,217.277 217.758,168.668 217.758,108.706 L217.758,108.706 C217.758,48.745 169.15,0.137 109.187,0.137 L109.187,0.137 C49.226,0.137 0.618,48.745 0.618,108.706 M15.744,108.706 C15.744,57.099 57.58,15.263 109.187,15.263 L109.187,15.263 C160.796,15.263 202.631,57.099 202.631,108.706 L202.631,108.706 C202.631,160.315 160.796,202.15 109.187,202.15 L109.187,202.15 C57.58,202.15 15.744,160.315 15.744,108.706" id="path-33"></path>
        <path d="M0.618,108.706 C0.618,168.668 49.226,217.277 109.187,217.277 L109.187,217.277 C169.15,217.277 217.758,168.668 217.758,108.706 L217.758,108.706 C217.758,48.745 169.15,0.137 109.187,0.137 L109.187,0.137 C49.226,0.137 0.618,48.745 0.618,108.706 M15.744,108.706 C15.744,57.099 57.58,15.263 109.187,15.263 L109.187,15.263 C160.796,15.263 202.631,57.099 202.631,108.706 L202.631,108.706 C202.631,160.315 160.796,202.15 109.187,202.15 L109.187,202.15 C57.58,202.15 15.744,160.315 15.744,108.706" id="path-35"></path>
        <path d="M0.618,108.706 C0.618,168.668 49.226,217.277 109.187,217.277 L109.187,217.277 C169.15,217.277 217.758,168.668 217.758,108.706 L217.758,108.706 C217.758,48.745 169.15,0.137 109.187,0.137 L109.187,0.137 C49.226,0.137 0.618,48.745 0.618,108.706 M15.744,108.706 C15.744,57.099 57.58,15.263 109.187,15.263 L109.187,15.263 C160.796,15.263 202.631,57.099 202.631,108.706 L202.631,108.706 C202.631,160.315 160.796,202.15 109.187,202.15 L109.187,202.15 C57.58,202.15 15.744,160.315 15.744,108.706" id="path-37"></path>
        <path d="M0.618,108.706 C0.618,168.668 49.226,217.277 109.187,217.277 L109.187,217.277 C169.15,217.277 217.758,168.668 217.758,108.706 L217.758,108.706 C217.758,48.745 169.15,0.137 109.187,0.137 L109.187,0.137 C49.226,0.137 0.618,48.745 0.618,108.706 M15.744,108.706 C15.744,57.099 57.58,15.263 109.187,15.263 L109.187,15.263 C160.796,15.263 202.631,57.099 202.631,108.706 L202.631,108.706 C202.631,160.315 160.796,202.15 109.187,202.15 L109.187,202.15 C57.58,202.15 15.744,160.315 15.744,108.706" id="path-39"></path>
    </defs>
    <g id="Desktop" stroke="none" stroke-width="1" fill="none" fill-rule="evenodd">
        <g id="Home" transform="translate(-152.000000, -1833.000000)">
            <g id="Group-107" transform="translate(152.000000, 1833.000000)">
                <path d="M142.6174,373.8186 C142.6174,373.8186 313.978594,506.542 407.097096,470.243 C500.214563,433.944 643.339073,205.283294 508.718181,69.14 C256.4519,-185.979113 -114.33567,487.624 33.9264423,409.805 C93.2664817,378.659 142.6174,373.8186 142.6174,373.8186 Z" id="Fill-1" fill="#5426CE"></path>
                <path d="M111.561749,155.7835 C188.947816,87.7545 406.00871,-59.3905 514.787012,150.9555 C640.473632,393.9995 526.804873,524.9775 347.879338,438.8065 C213.652123,374.1645 84.0800053,537.9385 32.8489273,368.8415 C1.86804871,266.5835 69.78979,192.5045 111.561749,155.7835" id="Fill-3" fill="#00DBAC"></path>
                <path d="M175.98404,395.529996 C175.98404,395.529996 276.900318,473.668929 331.738713,452.298431 C386.576497,430.927933 470.863917,296.307334 391.584361,216.15499 C243.022287,65.9573958 24.6618704,462.531237 111.974874,416.716455 C146.920803,398.37971 175.98404,395.529996 175.98404,395.529996 Z" id="Fill-1" fill="#5426CE" transform="translate(258.000000, 319.000000) rotate(-161.000000) translate(-258.000000, -319.000000) "></path>
                <path d="M273.1184,443.5091 C201.0444,443.5091 142.6174,385.0821 142.6174,313.0081 C142.6174,240.9351 201.0444,182.5081 273.1184,182.5081 L334.6824,182.6311 L334.6824,443.5091 L273.1184,443.5091 Z" id="Fill-5" fill="#987DE2"></path>
                <path d="M459.6189,313.0081 C459.6189,385.0821 401.1919,443.5091 329.1179,443.5091 C257.0449,443.5091 198.6179,385.0821 198.6179,313.0081 C198.6179,240.9351 257.0449,182.5081 329.1179,182.5081 C401.1919,182.5081 459.6189,240.9351 459.6189,313.0081" id="Fill-7" fill="#BBA8EB"></path>
                <path d="M237.8435,248.847 C273.2795,198.399 342.9015,186.229 393.3495,221.664 C443.7965,257.1 455.9665,326.722 420.5315,377.17 C385.0965,427.618 315.4745,439.787 265.0265,404.353 C214.5785,368.917 202.4085,299.295 237.8435,248.847" id="Fill-9" fill="#7651D8"></path>
                <path d="M415.4666,368.7151 C380.3296,417.8241 311.6486,429.9991 261.7796,395.9491 C246.6056,385.5891 234.8126,372.1691 226.6276,357.0961 C234.7436,376.0271 248.1956,392.9561 266.5676,405.4161 C316.8516,439.5191 385.8856,426.7471 420.6896,376.9441 C445.7336,341.1071 446.8076,295.6571 427.2576,259.6561 C442.1206,294.3251 439.0766,335.7161 415.4666,368.7151" id="Fill-11" fill="#5426CE"></path>
                <path d="M370.5515,367.68 L327.5215,367.68 C297.0325,367.68 272.3175,342.964 272.3175,312.477 C272.3175,281.989 297.0325,257.274 327.5215,257.274 L370.5515,257.274 L370.5515,367.68 Z" id="Fill-13" fill="#987DE2"></path>
                <path d="M370.5515,312.4769 L370.5515,367.6799 L327.5215,367.6799 C297.0325,367.6799 272.3175,342.9639 272.3175,312.4769 L370.5515,312.4769 Z" id="Fill-15" fill="#5426CE"></path>
                <path d="M226.9138,206.1907 C226.9138,206.1907 234.2118,211.8077 227.8288,222.9147 C221.4458,234.0207 202.4238,249.4667 188.3818,239.8927 C174.3388,230.3177 204.1688,196.3607 226.9138,206.1907" id="Fill-17" fill="#7651D8"></path>
                <path d="M411.0408,105.7015 C411.0408,47.3245 363.7168,-0.0005 305.3388,-0.0005 C246.9618,-0.0005 199.6368,47.3245 199.6368,105.7015 L199.6368,238.2335 C199.6368,238.2335 224.6158,236.3185 226.9138,216.7865 L226.9138,106.8505 C226.9138,67.9445 262.3938,36.4035 305.3388,36.4035 C348.2838,36.4035 383.0988,67.9445 383.0988,106.8505 L383.0988,119.1165 C383.0988,119.1165 394.0408,121.0415 394.0408,133.2975 L382.9348,133.2975 L382.9348,153.9785 C382.9348,153.9785 384.0838,170.4465 396.7218,170.0635 C409.3598,169.6805 411.0408,153.2125 411.0408,153.2125 L411.0408,105.7015 Z" id="Fill-19" fill="#BBA8EB"></path>
                <path d="M373.3601,119.1165 C375.6581,41.7445 305.3391,36.4035 305.3391,36.4035 C348.2841,36.4035 383.0981,67.9445 383.0981,106.8505 L383.0981,119.1165 L373.3601,119.1165 Z" id="Fill-25" fill="#7651D8"></path>
                <path d="M382.9344,133.2972 L382.9344,153.9782 C382.9344,153.9782 384.0834,170.4462 396.7214,170.0632 C396.7214,170.0632 375.0194,174.1482 373.2324,154.8722 L373.2324,133.2972 L382.9344,133.2972 Z" id="Fill-27" fill="#7651D8"></path>
                <path d="M373.3601,119.1165 C373.3601,119.1165 384.0841,121.9355 384.0841,133.2975 L394.0411,133.2975 C394.0411,133.2975 395.2621,122.4255 383.0981,119.1165 L373.3601,119.1165 Z" id="Fill-29" fill="#5426CE"></path>
                <g id="Group-5" transform="translate(220.000000, 204.302000)">
                    <mask id="mask-2" fill="white">
                        <use xlink:href="#path-1"></use>
                    </mask>
                    <g id="Clip-33"></g>
                    <path d="M109.118,6.1016 L109.118,211.6326" id="Stroke-32" stroke="#5426CE" stroke-width="3" stroke-linecap="round" mask="url(#mask-2)"></path>
                    <mask id="mask-4" fill="white">
                        <use xlink:href="#path-3"></use>
                    </mask>
                    <g id="Clip-36"></g>
                    <path d="M6.3528,108.8672 L211.8848,108.8672" id="Stroke-35" stroke="#5426CE" stroke-width="3" stroke-linecap="round" mask="url(#mask-4)"></path>
                    <mask id="mask-6" fill="white">
                        <use xlink:href="#path-5"></use>
                    </mask>
                    <g id="Clip-39"></g>
                    <path d="M181.7849,36.2007 L36.4519,181.5337" id="Stroke-38" stroke="#5426CE" stroke-width="3" stroke-linecap="round" mask="url(#mask-6)"></path>
                    <mask id="mask-8" fill="white">
                        <use xlink:href="#path-7"></use>
                    </mask>
                    <g id="Clip-42"></g>
                    <path d="M36.4519,36.2007 L181.7849,181.5337" id="Stroke-41" stroke="#5426CE" stroke-width="3" stroke-linecap="round" mask="url(#mask-8)"></path>
                    <g id="Group-47" mask="url(#mask-8)">
                        <g transform="translate(0.000000, -0.000000)">
                            <mask id="mask-10" fill="white">
                                <use xlink:href="#path-9"></use>
                            </mask>
                            <g id="Clip-46" stroke="none" fill="none"></g>
                            <path d="M169.6609,25.8287 L48.5759,191.9067" id="Stroke-45" stroke="#5426CE" stroke-width="3" fill="none" stroke-linecap="round" mask="url(#mask-10)"></path>
                        </g>
                    </g>
                    <g id="Group-50" mask="url(#mask-8)">
                        <g transform="translate(0.000000, -0.000000)">
                            <mask id="mask-12" fill="white">
                                <use xlink:href="#path-11"></use>
                            </mask>
                            <g id="Clip-49" stroke="none" fill="none"></g>
                            <path d="M26.0799,48.3252 L192.1569,169.4092" id="Stroke-48" stroke="#5426CE" stroke-width="3" fill="none" stroke-linecap="round" mask="url(#mask-12)"></path>
                        </g>
                    </g>
                    <g id="Group-53" mask="url(#mask-8)">
                        <g transform="translate(0.000000, -0.000000)">
                            <mask id="mask-14" fill="white">
                                <use xlink:href="#path-13"></use>
                            </mask>
                            <g id="Clip-52" stroke="none" fill="none"></g>
                            <path d="M155.616,17.2222 L62.621,200.5132" id="Stroke-51" stroke="#5426CE" stroke-width="3" fill="none" stroke-linecap="round" mask="url(#mask-14)"></path>
                        </g>
                    </g>
                    <g id="Group-56" mask="url(#mask-8)">
                        <g transform="translate(0.000000, -0.000000)">
                            <mask id="mask-16" fill="white">
                                <use xlink:href="#path-15"></use>
                            </mask>
                            <g id="Clip-55" stroke="none" fill="none"></g>
                            <path d="M17.4734,62.3702 L200.7634,155.3642" id="Stroke-54" stroke="#5426CE" stroke-width="3" fill="none" stroke-linecap="round" mask="url(#mask-16)"></path>
                        </g>
                    </g>
                    <g id="Group-59" mask="url(#mask-8)">
                        <g transform="translate(0.000000, -0.000000)">
                            <mask id="mask-18" fill="white">
                                <use xlink:href="#path-17"></use>
                            </mask>
                            <g id="Clip-58" stroke="none" fill="none"></g>
                            <path d="M140.8699,11.1299 L77.3669,206.6049" id="Stroke-57" stroke="#5426CE" stroke-width="3" fill="none" stroke-linecap="round" mask="url(#mask-18)"></path>
                        </g>
                    </g>
                    <g id="Group-62" mask="url(#mask-8)">
                        <g transform="translate(0.000000, -0.000000)">
                            <mask id="mask-20" fill="white">
                                <use xlink:href="#path-19"></use>
                            </mask>
                            <g id="Clip-61" stroke="none" fill="none"></g>
                            <path d="M11.3806,77.1153 L206.8566,140.6193" id="Stroke-60" stroke="#5426CE" stroke-width="3" fill="none" stroke-linecap="round" mask="url(#mask-20)"></path>
                        </g>
                    </g>
                    <g id="Group-65" mask="url(#mask-8)">
                        <g transform="translate(0.000000, -0.000000)">
                            <mask id="mask-22" fill="white">
                                <use xlink:href="#path-21"></use>
                            </mask>
                            <g id="Clip-64" stroke="none" fill="none"></g>
                            <path d="M125.0359,7.3419 L93.2019,210.3929" id="Stroke-63" stroke="#5426CE" stroke-width="3" fill="none" stroke-linecap="round" mask="url(#mask-22)"></path>
                        </g>
                    </g>
                    <g id="Group-68" mask="url(#mask-8)">
                        <g transform="translate(0.000000, -0.000000)">
                            <mask id="mask-24" fill="white">
                                <use xlink:href="#path-23"></use>
                            </mask>
                            <g id="Clip-67" stroke="none" fill="none"></g>
                            <path d="M7.593,92.9502 L210.644,124.7842" id="Stroke-66" stroke="#5426CE" stroke-width="3" fill="none" stroke-linecap="round" mask="url(#mask-24)"></path>
                        </g>
                    </g>
                    <g id="Group-71" mask="url(#mask-8)">
                        <g transform="translate(0.000000, -0.000000)">
                            <mask id="mask-26" fill="white">
                                <use xlink:href="#path-25"></use>
                            </mask>
                            <g id="Clip-70" stroke="none" fill="none"></g>
                            <path d="M92.8675,7.3946 L125.3695,210.3396" id="Stroke-69" stroke="#5426CE" stroke-width="3" fill="none" stroke-linecap="round" mask="url(#mask-26)"></path>
                        </g>
                    </g>
                    <g id="Group-74" mask="url(#mask-8)">
                        <g transform="translate(0.000000, -0.000000)">
                            <mask id="mask-28" fill="white">
                                <use xlink:href="#path-27"></use>
                            </mask>
                            <g id="Clip-73" stroke="none" fill="none"></g>
                            <path d="M7.6458,125.1182 L210.5908,92.6162" id="Stroke-72" stroke="#5426CE" stroke-width="3" fill="none" stroke-linecap="round" mask="url(#mask-28)"></path>
                        </g>
                    </g>
                    <g id="Group-77" mask="url(#mask-8)">
                        <g transform="translate(0.000000, -0.000000)">
                            <mask id="mask-30" fill="white">
                                <use xlink:href="#path-29"></use>
                            </mask>
                            <g id="Clip-76" stroke="none" fill="none"></g>
                            <path d="M77.1258,11.2086 L141.1108,206.5266" id="Stroke-75" stroke="#5426CE" stroke-width="3" fill="none" stroke-linecap="round" mask="url(#mask-30)"></path>
                        </g>
                    </g>
                    <g id="Group-80" mask="url(#mask-8)">
                        <g transform="translate(0.000000, -0.000000)">
                            <mask id="mask-32" fill="white">
                                <use xlink:href="#path-31"></use>
                            </mask>
                            <g id="Clip-79" stroke="none" fill="none"></g>
                            <path d="M11.4593,140.8594 L206.7773,76.8754" id="Stroke-78" stroke="#5426CE" stroke-width="3" fill="none" stroke-linecap="round" mask="url(#mask-32)"></path>
                        </g>
                    </g>
                    <g id="Group-83" mask="url(#mask-8)">
                        <g transform="translate(0.000000, -0.000000)">
                            <mask id="mask-34" fill="white">
                                <use xlink:href="#path-33"></use>
                            </mask>
                            <g id="Clip-82" stroke="none" fill="none"></g>
                            <path d="M62.1341,17.4712 L156.1031,200.2632" id="Stroke-81" stroke="#5426CE" stroke-width="3" fill="none" stroke-linecap="round" mask="url(#mask-34)"></path>
                        </g>
                    </g>
                    <g id="Group-86" mask="url(#mask-8)">
                        <g transform="translate(0.000000, -0.000000)">
                            <mask id="mask-36" fill="white">
                                <use xlink:href="#path-35"></use>
                            </mask>
                            <g id="Clip-85" stroke="none" fill="none"></g>
                            <path d="M17.7224,155.8516 L200.5144,61.8826" id="Stroke-84" stroke="#5426CE" stroke-width="3" fill="none" stroke-linecap="round" mask="url(#mask-36)"></path>
                        </g>
                    </g>
                    <g id="Group-89" mask="url(#mask-8)">
                        <g transform="translate(0.000000, -0.000000)">
                            <mask id="mask-38" fill="white">
                                <use xlink:href="#path-37"></use>
                            </mask>
                            <g id="Clip-88" stroke="none" fill="none"></g>
                            <path d="M48.4695,25.9063 L169.7675,191.8283" id="Stroke-87" stroke="#5426CE" stroke-width="3" fill="none" stroke-linecap="round" mask="url(#mask-38)"></path>
                        </g>
                    </g>
                    <g id="Group-92" mask="url(#mask-8)">
                        <g transform="translate(0.000000, -0.000000)">
                            <mask id="mask-40" fill="white">
                                <use xlink:href="#path-39"></use>
                            </mask>
                            <g id="Clip-91" stroke="none" fill="none"></g>
                            <path d="M26.1575,169.5166 L192.0785,48.2176" id="Stroke-90" stroke="#5426CE" stroke-width="3" fill="none" stroke-linecap="round" mask="url(#mask-40)"></path>
                        </g>
                    </g>
                </g>
                <path d="M212.1468,139.8631 C203.5908,137.3311 200.5378,131.8851 200.5378,131.8851 C200.5378,131.8851 195.3368,104.3421 183.1258,99.1521 C170.9158,93.9631 136.4158,102.8931 134.8398,128.4491 C131.9408,175.4761 233.5248,146.1891 212.1468,139.8631" id="Fill-94" fill="#5426CE"></path>
                <path d="M223.0877,119.4485 C224.4527,114.8385 227.3867,113.1935 227.3867,113.1935 C227.3867,113.1935 242.2277,110.3905 245.0247,103.8115 C247.8207,97.2315 243.0077,78.6415 229.2377,77.7925 C203.8987,76.2305 219.6787,130.9685 223.0877,119.4485" id="Fill-96" fill="#5426CE"></path>
                <path d="M356.534,258.1849 C386.518,252.6679 415.298,272.5039 420.813,302.4899 C426.329,332.4739 406.493,361.2529 376.509,366.7689 C346.523,372.2849 317.744,352.4489 312.229,322.4639 C306.713,292.4789 326.549,263.7009 356.534,258.1849" id="Fill-98" fill="#FFAF5C"></path>
                <path d="M356.534,258.1849 C326.549,263.7009 306.713,292.4789 312.229,322.4639 C314.92,337.0939 323.149,349.3069 334.353,357.3389 L371.521,312.4769 L356.534,258.1849 Z" id="Fill-100" fill="#00DBAC"></path>
                <path d="M420.8133,302.4895 C423.9333,319.4505 418.9413,336.0265 408.5883,348.2235 L371.5213,312.4765 L420.8133,302.4895 Z" id="Fill-102" fill="#EF6EA9"></path>
                <path d="M356.534,258.1849 C386.518,252.6679 415.298,272.5039 420.813,302.4899 L371.521,312.4769 L356.534,258.1849 Z" id="Fill-104" fill="#5426CE"></path>
            </g>
        </g>
    </g>
</svg>