<?xml version="1.0" encoding="UTF-8"?>
<svg width="1135px" height="493px" viewBox="0 0 1135 493" version="1.1" xmlns="http://www.w3.org/2000/svg" xmlns:xlink="http://www.w3.org/1999/xlink" style="background: #FFFFFF;">
    <!-- Generator: Sketch 57.1 (83088) - https://sketch.com -->
    <title>Group 9</title>
    <desc>Created with Sketch.</desc>
    <g id="Desktop" stroke="none" stroke-width="1" fill="none" fill-rule="evenodd">
        <g id="Home" transform="translate(-152.000000, -2776.000000)">
            <rect fill="#FFFFFF" x="0" y="0" width="1440" height="4186"></rect>
            <g id="Group-9" transform="translate(153.875644, 2776.000000)">
                <rect id="Rectangle" fill="#D8D8D8" opacity="0" x="0.995323395" y="1.13686838e-13" width="1132" height="460"></rect>
                <g id="Group-7" transform="translate(350.000000, 125.088457) rotate(120.000000) translate(-350.000000, -125.088457) translate(293.000000, 79.588457)" fill="#5426CE">
                    <path d="M69.2737234,55.9689207 C61.7111403,53.7455266 59.0126169,48.9632974 59.0126169,48.9632974 C59.0126169,48.9632974 54.4154927,24.7773006 43.6222829,20.2198696 C32.8299571,15.6633167 2.33567037,23.504908 0.942655999,45.9460848 C-1.61974798,87.2413275 88.1695745,61.5238935 69.2737234,55.9689207" id="Fill-94"></path>
                    <path d="M79.5445413,37.541591 C80.7457514,33.494293 83.3276931,32.0500837 83.3276931,32.0500837 C83.3276931,32.0500837 96.3878829,29.5892212 98.8492636,23.8132618 C101.309764,18.0364245 97.0742887,1.71554203 84.9565868,0.970171978 C62.6580793,-0.40116844 76.5445961,47.655446 79.5445413,37.541591" id="Fill-96"></path>
                    <path d="M83.9582562,86.5184163 C85.1328414,82.4445732 87.707876,81.0057918 87.707876,81.0057918 C87.707876,81.0057918 100.766728,78.6141068 103.191012,72.8054342 C105.614408,66.9958699 101.260631,50.5051171 89.1231638,49.6694778 C66.7882871,48.1320296 81.0248466,96.6986177 83.9582562,86.5184163" id="Fill-96-Copy-2" transform="translate(90.311510, 68.778111) rotate(-235.000000) translate(-90.311510, -68.778111) "></path>
                </g>
                <g id="Group-6" transform="translate(905.624356, 61.000000) scale(-1, 1) translate(-905.624356, -61.000000) translate(852.124356, 25.000000)" fill="#10CAA2">
                    <path d="M83.3088485,41.6888372 C84.6738485,37.0788372 87.6078485,35.4338372 87.6078485,35.4338372 C87.6078485,35.4338372 102.448849,32.6308372 105.245849,26.0518372 C108.041849,19.4718372 103.228849,0.881837171 89.4588485,0.0328371712 C64.1198485,-1.52916283 79.8998485,53.2088372 83.3088485,41.6888372" id="Fill-96-Copy"></path>
                    <path d="M77.3679485,57.1034372 C68.8119485,54.5714372 65.7589485,49.1254372 65.7589485,49.1254372 C65.7589485,49.1254372 60.5579485,21.5824372 48.3469485,16.3924372 C36.1369485,11.2034372 1.63694852,20.1334372 0.0609485188,45.6894372 C-2.83805148,92.7164372 98.7459485,63.4294372 77.3679485,57.1034372" id="Fill-94-Copy"></path>
                </g>
            </g>
        </g>
    </g>
</svg>