<?xml version="1.0" encoding="UTF-8"?>
<svg width="32px" height="32px" viewBox="0 0 32 32" version="1.1" xmlns="http://www.w3.org/2000/svg" xmlns:xlink="http://www.w3.org/1999/xlink">
    <!-- Generator: Sketch 57.1 (83088) - https://sketch.com -->
    <title>chat</title>
    <desc>Created with Sketch.</desc>
    <g id="chat" stroke="none" stroke-width="1" fill="none" fill-rule="evenodd">
        <path d="M16.48,4 C10.1344,4 4.96,9.3832 4.96,16 C4.94699513,18.9158445 5.97699146,21.7402477 7.864,23.9632 L4,28 L16.48,28 C22.828,28 28,22.6168 28,16 C28,9.3832 22.8328,4 16.48,4 Z M13.8096,15.28 L13.8096,17.28 L11.8096,17.28 L11.8096,15.28 L13.8096,15.28 Z M15.76,15.28 L17.76,15.28 L17.76,17.28 L15.76,17.28 L15.76,15.28 Z M21.7128,17.28 L19.7128,17.28 L19.7128,15.28 L21.7128,15.28 L21.7128,17.28 Z" fill="#3B3542"></path>
    </g>
</svg>