<?xml version="1.0" encoding="UTF-8"?>
<svg width="32px" height="32px" viewBox="0 0 32 32" version="1.1" xmlns="http://www.w3.org/2000/svg" xmlns:xlink="http://www.w3.org/1999/xlink">
    <!-- Generator: Sketch 57.1 (83088) - https://sketch.com -->
    <title>close</title>
    <desc>Created with Sketch.</desc>
    <g id="close" stroke="none" stroke-width="1" fill="none" fill-rule="evenodd">
        <path d="M10.0588408,7.30151519 L15.8216272,13.0637288 L21.5146849,7.372583 C22.2957335,6.59153442 23.5620634,6.59153442 24.343112,7.372583 C25.1241606,8.15363159 25.1241606,9.41996154 24.343112,10.2010101 L18.6506272,15.8927288 L24.2009764,21.4436508 C24.982025,22.2246994 24.982025,23.4910294 24.2009764,24.2720779 C23.4199278,25.0531265 22.1535978,25.0531265 21.3725493,24.2720779 L15.8216272,18.7217288 L10.2009764,24.3431458 C9.4199278,25.1241943 8.15359784,25.1241943 7.37254926,24.3431458 C6.59150067,23.5620972 6.59150067,22.2957672 7.37254926,21.5147186 L12.9926272,15.8927288 L7.23041363,10.1299423 C6.44936505,9.34889373 6.44936505,8.08256377 7.23041363,7.30151519 C8.01146222,6.52046661 9.27779218,6.52046661 10.0588408,7.30151519 Z" id="hamburguer" fill="#3B3542"></path>
    </g>
</svg>