<?xml version="1.0" encoding="UTF-8"?>
<svg width="32px" height="32px" viewBox="0 0 32 32" version="1.1" xmlns="http://www.w3.org/2000/svg" xmlns:xlink="http://www.w3.org/1999/xlink">
    <!-- Generator: Sketch 57.1 (83088) - https://sketch.com -->
    <title>mail</title>
    <desc>Created with Sketch.</desc>
    <g id="mail" stroke="none" stroke-width="1" fill="none" fill-rule="evenodd">
        <path d="M27.819915,6 L4.18076721,6 C2.98129403,6 2,7.00089552 2,8.22467662 L2,24.7753234 C2,25.998408 2.98163547,27 4.18076721,27 L27.8192321,27 C29.0190467,27 30,25.998408 30,24.7753234 L30,8.22432836 C30.0006822,7.00089552 29.0190467,6 27.819915,6 Z M26.647074,22.5081592 C26.9506127,22.7996517 26.9652946,23.2868657 26.6805349,23.5971642 C26.5316678,23.7591045 26.3305606,23.8402488 26.1291119,23.8402488 C25.9437108,23.8402488 25.7583098,23.7709453 25.6121741,23.6309453 L19.4078965,17.6924378 L16.7218005,20.3635821 C16.5756648,20.5098507 16.3851422,20.5826368 16.194961,20.5826368 C16.0095599,20.5826368 15.823476,20.5133333 15.6776818,20.3736816 L12.6125891,17.4392537 L6.39840976,23.6208458 C6.25193268,23.7674627 6.06175148,23.8402488 5.8708874,23.8402488 C5.6745603,23.8402488 5.47823321,23.7615423 5.33004894,23.6072637 C5.03880196,23.3021891 5.04494785,22.8149751 5.34370647,22.5179104 L11.5097429,16.3840299 L5.3546325,10.4914925 C5.05041087,10.2 5.03504614,9.71313433 5.32048866,9.40283582 C5.60627262,9.0918408 6.08394497,9.07721393 6.38816661,9.36800995 L16.1850593,18.7455721 L25.601931,9.37845771 C25.9000067,9.08104478 26.3787034,9.08800995 26.6702918,9.39169154 C26.9611973,9.69606965 26.9550514,10.1839801 26.6562928,10.481393 L20.4909392,16.6152736 L26.647074,22.5081592 Z" fill="#3B3542"></path>
    </g>
</svg>