<?xml version="1.0" encoding="UTF-8"?>
<svg width="32px" height="32px" viewBox="0 0 32 32" version="1.1" xmlns="http://www.w3.org/2000/svg" xmlns:xlink="http://www.w3.org/1999/xlink">
    <!-- Generator: Sketch 57.1 (83088) - https://sketch.com -->
    <title>phone</title>
    <desc>Created with Sketch.</desc>
    <g id="phone" stroke="none" stroke-width="1" fill="none" fill-rule="evenodd">
        <path d="M7.68942461,4.02125849 C7.52760413,3.9888944 7.33341956,3.9888944 7.20396317,4.05362259 C5.45630199,4.73326861 4.35592272,7.22530401 4.09700995,8.9406011 C3.28790755,14.5072256 7.68942461,19.3294759 11.7349366,22.5011574 C15.3273513,25.3168337 22.2209038,29.9448995 26.2987799,25.4786542 C26.8166054,24.9284646 27.4315232,24.1193622 27.3991591,23.3102598 C27.3020668,21.9509677 26.0398671,20.9800448 25.0689442,20.2356706 C24.32457,19.685481 22.7710934,18.1643685 21.8001705,18.1967326 C20.9263399,18.2290967 20.3761503,19.1352914 19.8259606,19.685481 L18.8550378,20.6564039 C18.6932173,20.8182244 16.6219151,19.4589323 16.3953665,19.2971118 C15.5539,18.7469222 14.7447976,18.1320044 14.0327874,17.4523584 C13.3207773,16.7727123 12.6734954,16.0283381 12.1233058,15.2515998 C11.9614853,15.0250512 10.6345574,13.0508413 10.7640137,12.8890208 C10.7640137,12.8890208 11.8967571,11.6591852 12.2203981,11.1737237 C12.9000441,10.1380727 13.4178696,9.32897025 12.6411313,8.0991346 C12.3498545,7.64603726 11.9938494,7.2900322 11.6054802,6.90166305 C10.9258342,6.25438112 10.2461882,5.57473511 9.4694499,5.02454547 C9.04871665,4.70090451 8.33670654,4.11835078 7.68942461,4.02125849 Z" fill="#3B3542"></path>
    </g>
</svg>