<?xml version="1.0" encoding="UTF-8"?>
<svg width="92px" height="27px" viewBox="0 0 92 27" version="1.1" xmlns="http://www.w3.org/2000/svg" xmlns:xlink="http://www.w3.org/1999/xlink">
    <!-- Generator: Sketch 57.1 (83088) - https://sketch.com -->
    <title>logo/proper-logo-text</title>
    <desc>Created with Sketch.</desc>
    <g id="Desktop" stroke="none" stroke-width="1" fill="none" fill-rule="evenodd">
        <g id="Home" transform="translate(-151.000000, -3771.000000)" fill="#4C31C6" stroke="#4C31C6">
            <g id="logo/proper-logo-text" transform="translate(152.000000, 3772.000000)">
                <g id="Group">
                    <g id="Logo/TextPurple" stroke-width="0.5">
                        <g id="Brand-/-Logo-Type-White">
                            <path d="M9.13621551,8.91989033 C9.48100199,8.62278935 9.76067141,8.23691152 9.97543248,7.76308848 C10.1897761,7.28926543 10.297261,6.79236457 10.297261,6.27176215 C10.297261,5.75178346 10.1897761,5.25446678 9.97543248,4.78043583 C9.76067141,4.30661278 9.48100199,3.92593266 9.13621551,3.63756383 C8.7905942,3.34981873 8.44079872,3.20573827 8.08682907,3.20573827 L3.21807669,3.20573827 L3.21807669,9.36585366 L8.08682907,9.36585366 C8.44079872,9.36585366 8.7905942,9.21740712 9.13621551,8.91989033 M10.8010834,0.850344998 C11.6586667,1.41731097 12.3492832,2.17908702 12.8716806,3.13588108 C13.3934519,4.09329886 13.6551724,5.13866185 13.6551724,6.27176215 C13.6551724,7.38677443 13.3934519,8.42777135 12.8716806,9.39371337 C12.3492832,10.3602791 11.6586667,11.1268371 10.8010834,11.6933872 C9.94266524,12.2603532 9.03812251,12.5435243 8.08682907,12.5435243 L3.21807669,12.5435243 L3.21807669,17.8119209 C3.21807669,18.3136037 3.06843268,18.7225594 2.7701882,19.0381642 C2.47152631,19.3543927 2.07978041,19.5121951 1.59495052,19.5121951 C1.12848697,19.5121951 0.745924255,19.3498187 0.447679778,19.0244422 C0.149017884,18.6994815 0,18.2953078 0,17.8119209 L0,1.70027418 C0,1.21730317 0.163210064,0.81312941 0.489630191,0.487752901 C0.816050318,0.163000117 1.22157097,0 1.70681829,0 L8.08682907,0 C9.03812251,0 9.94266524,0.283586938 10.8010834,0.850344998" id="Fill-1"></path>
                            <path d="M26.106413,4.74374539 C26.4948166,5.06106156 26.6896552,5.43387156 26.6896552,5.86259262 C26.6896552,6.44089666 26.5374774,6.87420744 26.2346075,7.16315083 C25.9306763,7.45251148 25.5700765,7.59667024 25.1530201,7.59667024 C24.8686153,7.59667024 24.5455824,7.53157974 24.185407,7.4009815 C24.1287383,7.38262264 24.0005439,7.34507043 23.8014605,7.28915936 C23.6021649,7.23324829 23.388649,7.20508414 23.1611252,7.20508414 C22.6676616,7.20508414 22.193512,7.35466711 21.7384643,7.65258131 C21.2829921,7.95133 20.9083842,8.40341688 20.6144285,9.00925921 C20.3200483,9.61551878 20.1733888,10.337773 20.1733888,11.1768562 L20.1733888,17.8058644 C20.1733888,18.2911224 20.0118723,18.6964777 19.6896883,19.022556 C19.3668676,19.3490516 18.9589377,19.5121951 18.4661109,19.5121951 C17.972435,19.5121951 17.5649296,19.3490516 17.2423211,19.022556 C16.9197127,18.6964777 16.7586207,18.2911224 16.7586207,17.8058644 L16.7586207,6.25417873 C16.7586207,5.76954659 16.9197127,5.36398272 17.2423211,5.03748712 C17.5649296,4.71140876 17.972435,4.54805665 18.4661109,4.54805665 C18.9589377,4.54805665 19.3668676,4.71140876 19.6896883,5.03748712 C20.0118723,5.36398272 20.1733888,5.76954659 20.1733888,6.25417873 L20.1733888,6.61780929 C20.6095469,5.8534132 21.235662,5.27072807 22.0515218,4.86975391 C22.8667449,4.46898838 23.739698,4.26829268 24.6693197,4.26829268 C25.2383416,4.26829268 25.7171605,4.42684646 26.106413,4.74374539" id="Fill-3"></path>
                            <path d="M38.8199318,9.50058002 C38.429953,8.79604454 37.9072154,8.2508951 37.2510809,7.86636091 C36.5949464,7.48182671 35.8677519,7.28966205 35.0690719,7.28966205 C34.2703919,7.28966205 33.5427719,7.48182671 32.8868501,7.86636091 C32.2309283,8.2508951 31.7075525,8.79604454 31.3179993,9.50058002 C30.9280205,10.2057301 30.7333502,11.0069625 30.7333502,11.9038675 C30.7333502,12.8013871 30.9280205,13.5979076 31.3179993,14.2936338 C31.7075525,14.9895649 32.2309283,15.5295927 32.8868501,15.9141269 C33.5427719,16.2986611 34.2703919,16.4908258 35.0690719,16.4908258 C35.8677519,16.4908258 36.5949464,16.2986611 37.2510809,15.9141269 C37.9072154,15.5295927 38.429953,14.9895649 38.8199318,14.2936338 C39.2094851,13.5979076 39.4047936,12.8013871 39.4047936,11.9038675 C39.4047936,11.0069625 39.2094851,10.2057301 38.8199318,9.50058002 M41.8008335,15.8454967 C41.1159771,17.0083182 40.1794323,17.91014 38.9909863,18.5509621 C37.8025403,19.191989 36.4951646,19.5121951 35.0690719,19.5121951 C33.6236186,19.5121951 32.3115623,19.191989 31.1326902,18.5509621 C29.9533926,17.91014 29.0217411,17.0083182 28.3373103,15.8454967 C27.6526666,14.6826751 27.3103448,13.3690719 27.3103448,11.9038675 C27.3103448,10.4392778 27.6526666,9.12546968 28.3373103,7.96244324 C29.0217411,6.79982654 29.9533926,5.89349767 31.1326902,5.24325178 C32.3115623,4.59362049 33.6236186,4.26829268 35.0690719,4.26829268 C36.4951646,4.26829268 37.8025403,4.59362049 38.9909863,5.24325178 C40.1794323,5.89349767 41.1159771,6.79982654 41.8008335,7.96244324 C42.4852644,9.12546968 42.8275862,10.4392778 42.8275862,11.9038675 C42.8275862,13.3690719 42.4852644,14.6826751 41.8008335,15.8454967" id="Fill-5"></path>
                            <path d="M55.7637858,15.3159875 C56.5421906,14.425339 56.931393,13.3123915 56.931393,11.9765225 C56.931393,10.6408611 56.5470769,9.53248003 55.7778073,8.6511718 C55.0089626,7.77027868 54.0070639,7.32920944 52.7729608,7.32920944 C51.5384329,7.32920944 50.5322853,7.77027868 49.7538805,8.6511718 C48.9750508,9.53248003 48.5860608,10.6408611 48.5860608,11.9765225 C48.5860608,13.3123915 48.9750508,14.425339 49.7538805,15.3159875 C50.5322853,16.2064285 51.5384329,16.6516489 52.7729608,16.6516489 C53.9879436,16.6516489 54.9849561,16.2064285 55.7637858,15.3159875 M56.7603734,5.25608022 C57.8238817,5.914882 58.6641085,6.82836235 59.2812662,7.99714395 C59.8982115,9.16592555 60.2068966,10.4926618 60.2068966,11.9765225 C60.2068966,13.4610059 59.9030977,14.792101 59.2957126,15.9698078 C58.68769,17.1483448 57.8572358,18.0665991 56.8032876,18.7247782 C55.7495519,19.3835799 54.5861936,19.7127733 53.3142751,19.7127733 C52.4028787,19.7127733 51.5435317,19.5319868 50.7364466,19.1702062 C49.929149,18.8084256 49.2597294,18.3679791 48.7286126,17.8482439 L48.7286126,23.302558 C48.7286126,23.7847245 48.5667282,24.188225 48.2442341,24.5130596 C47.9211026,24.837479 47.5129924,25 47.0194787,25 C46.5255401,25 46.1174299,24.8422529 45.7945109,24.5269662 C45.4718043,24.2112644 45.3103448,23.8036127 45.3103448,23.302558 L45.3103448,6.24407533 C45.3103448,5.76190881 45.4718043,5.35820073 45.7945109,5.0333662 C46.1174299,4.70915436 46.5255401,4.54642576 47.0194787,4.54642576 C47.5129924,4.54642576 47.9211026,4.70915436 48.2442341,5.0333662 C48.5667282,5.35820073 48.7286126,5.76190881 48.7286126,6.24407533 L48.7286126,6.35532856 C49.1840984,5.79864728 49.8201638,5.31170684 50.6368091,4.89450723 C51.4530294,4.47689249 52.3072776,4.26829268 53.2004036,4.26829268 C54.5105626,4.26829268 55.6970775,4.59790113 56.7603734,5.25608022" id="Fill-7"></path>
                            <path d="M69.8836441,4.26829268 C71.115247,4.26829268 72.276908,4.59792269 73.3686272,5.25697783 C74.4601376,5.91623784 75.3324273,6.80453846 75.985705,7.9212651 C76.6389828,9.03840147 76.9655172,10.2469082 76.9655172,11.5467854 C76.9467269,11.9864287 76.7694713,12.3433059 76.4335416,12.6180317 C76.0978208,12.8927575 75.7059376,13.030018 75.2578922,13.030018 L66.0207662,13.030018 C66.2445801,14.1106882 66.7577654,14.9574009 67.560322,15.5707708 C68.3624611,16.1843457 69.267947,16.4908258 70.2755272,16.4908258 C71.0405031,16.4908258 71.6376186,16.4221955 72.0668737,16.2847302 C72.4959199,16.1474697 72.8368603,16.0011951 73.0888598,15.8452918 C73.3406504,15.6900031 73.5128953,15.584292 73.6064295,15.5293878 C73.9423591,15.3646753 74.2594984,15.282319 74.558265,15.282319 C74.9501481,15.282319 75.285869,15.4195795 75.5660539,15.6943053 C75.8458213,15.9688262 75.985705,16.2894421 75.985705,16.6555383 C75.985705,17.1500858 75.7243104,17.598948 75.2019387,18.0015104 C74.6793583,18.4229206 73.9795223,18.7800027 73.1026394,19.0727567 C72.2253389,19.3653059 71.3390609,19.5121951 70.4435964,19.5121951 C68.8760639,19.5121951 67.5087529,19.191989 66.3424987,18.5507572 C65.1762445,17.91014 64.2757693,17.0265513 63.6414907,15.900196 C63.0070033,14.7740455 62.6896552,13.5063323 62.6896552,12.096237 C62.6896552,10.5216341 63.0257936,9.13919572 63.6974441,7.94871719 C64.3693035,6.75864839 65.2553727,5.8476076 66.3569046,5.21579969 C67.4573927,4.58399177 68.6332508,4.26829268 69.8836441,4.26829268 Z M69.8836441,7.28945718 C67.7187873,7.28945718 66.4406261,8.28777105 66.0487429,10.2833745 L73.3826155,10.2833745 L73.3826155,10.0912098 C73.3078717,9.3221414 72.925175,8.66288139 72.2349429,8.11342976 C71.5442932,7.564183 70.7603182,7.28945718 69.8836441,7.28945718 Z" id="Fill-9"></path>
                            <path d="M89.4167579,4.74374539 C89.8051615,5.06106156 90,5.43387156 90,5.86259262 C90,6.44089666 89.8478222,6.87420744 89.5449523,7.16315083 C89.2410212,7.45251148 88.8804213,7.59667024 88.463365,7.59667024 C88.1789601,7.59667024 87.8559272,7.53157974 87.4957518,7.4009815 C87.4390831,7.38262264 87.3108887,7.34507043 87.1118053,7.28915936 C86.9125097,7.23324829 86.6989938,7.20508414 86.47147,7.20508414 C85.9780064,7.20508414 85.5038568,7.35466711 85.0488091,7.65258131 C84.5933369,7.95133 84.2187291,8.40341688 83.9247733,9.00925921 C83.6303931,9.61551878 83.4837336,10.337773 83.4837336,11.1768562 L83.4837336,17.8058644 C83.4837336,18.2911224 83.3222171,18.6964777 83.0000332,19.022556 C82.6772125,19.3490516 82.2692826,19.5121951 81.7764557,19.5121951 C81.2827798,19.5121951 80.8752744,19.3490516 80.552666,19.022556 C80.2300575,18.6964777 80.0689655,18.2911224 80.0689655,17.8058644 L80.0689655,6.25417873 C80.0689655,5.76954659 80.2300575,5.36398272 80.552666,5.03748712 C80.8752744,4.71140876 81.2827798,4.54805665 81.7764557,4.54805665 C82.2692826,4.54805665 82.6772125,4.71140876 83.0000332,5.03748712 C83.3222171,5.36398272 83.4837336,5.76954659 83.4837336,6.25417873 L83.4837336,6.61780929 C83.9198918,5.8534132 84.5460069,5.27072807 85.3618667,4.86975391 C86.1770898,4.46898838 87.0500428,4.26829268 87.9796645,4.26829268 C88.5486864,4.26829268 89.0275053,4.42684646 89.4167579,4.74374539" id="Fill-11"></path>
                        </g>
                    </g>
                </g>
            </g>
        </g>
    </g>
</svg>