<?xml version="1.0" encoding="UTF-8"?>
<svg width="568px" height="468px" viewBox="0 0 568 468" version="1.1" xmlns="http://www.w3.org/2000/svg" xmlns:xlink="http://www.w3.org/1999/xlink">
    <!-- Generator: Sketch 57.1 (83088) - https://sketch.com -->
    <title>Group 3</title>
    <desc>Created with Sketch.</desc>
    <g id="Desktop" stroke="none" stroke-width="1" fill="none" fill-rule="evenodd">
        <g id="Home" transform="translate(-720.000000, -1219.000000)">
            <g id="Group-3" transform="translate(720.000000, 1219.000000)">
                <g id="Group-10" transform="translate(23.000000, 0.000000)">
                    <path d="M31.8089,399.697 C89.1349,368.551 133.0699,380.924 133.0699,380.924 C133.0699,380.924 302.3559,496.434 392.3139,460.135 C482.2709,423.836 614.4629,199.3 490.4859,59.032 C262.3519,-199.079 -111.4211,477.516 31.8089,399.697" id="Fill-1" fill="#00DBAC"></path>
                    <path d="M106.3934,145.6755 C180.7024,77.6465 389.1324,-69.4985 493.5854,140.8475 C614.2744,383.8915 505.1254,514.8695 333.3144,428.6985 C204.4244,364.0565 80.0044,527.8305 30.8104,358.7335 C1.0614,256.4755 66.2824,182.3965 106.3934,145.6755" id="Fill-4" fill="#5426CE"></path>
                    <path d="M230.5384,79.5442 C221.9824,77.0122 218.9294,71.5662 218.9294,71.5662 C218.9294,71.5662 213.7284,44.0232 201.5174,38.8332 C189.3074,33.6442 154.8074,42.5742 153.2314,68.1302 C150.3324,115.1572 251.9164,85.8702 230.5384,79.5442" id="Fill-6" fill="#00DBAC"></path>
                    <path d="M119.9554,56.3161 C121.3204,51.7061 124.2544,50.0611 124.2544,50.0611 C124.2544,50.0611 139.0954,47.2581 141.8924,40.6791 C144.6884,34.1001 139.8754,15.5101 126.1054,14.6611 C100.7664,13.0981 116.5464,67.8361 119.9554,56.3161" id="Fill-8" fill="#00DBAC"></path>
                </g>
                <path d="M116,396.577501 L415.990587,397 C417.650153,397.002281 419,395.755586 419,394.215402 C419,392.675219 417.659152,391.424784 415.999586,391.422478 L116.008999,391 L116,396.577501 Z" id="Line" fill="#340F98" fill-rule="nonzero"></path>
                <g id="Group-4" transform="translate(0.000000, 96.000000)">
                    <path d="M357.839383,296 L335.46051,296 C325.230168,296 317.479303,286.752386 319.253991,276.664411 L332.203584,203 L388,203 L374.045901,282.379596 C372.659937,290.255711 365.826388,296 357.839383,296" id="Fill-5" fill="#D95E9F"></path>
                    <path d="M254.839195,296 L232.460183,296 C222.229777,296 214.480681,286.752386 216.253563,276.664411 L229.203237,203 L285,203 L271.045814,282.379596 C269.659841,290.255711 262.82625,296 254.839195,296" id="Fill-7" fill="#EF6EA9"></path>
                    <path d="M126.006491,296 L103.531083,296 C93.256611,296 85.4741363,286.752386 87.2546556,276.664411 L92.9628983,203 L149,203 L142.282918,282.379596 C140.890975,290.255711 134.027949,296 126.006491,296" id="Fill-9" fill="#EF6EA9"></path>
                    <path d="M196.345303,295 L177.131002,295 C168.348461,295 161.695405,287.145789 163.217761,278.576906 L168.096547,216 L216,216 L210.258545,283.428776 C209.069658,290.1194 203.203152,295 196.345303,295" id="Fill-11" fill="#D95E9F"></path>
                    <path d="M135.148464,246.134446 C135.148464,246.134446 172.806666,277.367312 228.43154,257.240754 L273,196.85383 L157.995618,150 L119.422664,176.723647 L112,222.535354 L135.148464,246.134446 Z" id="Fill-13" fill="#EF6EA9"></path>
                    <path d="M54.2075234,6 C54.2075234,6 46.9721509,29.2417699 49.5585266,37 L68.6854679,33.5506785 L81,20.1776991 C81,20.1776991 68.2211082,6.93457227 54.2075234,6" id="Fill-15" fill="#D95E9F"></path>
                    <path d="M139,17.8065705 C139,17.8065705 148.648424,2.96054539 153.767884,0.250332041 C158.885522,-2.45988131 180.291025,17.3112312 176.567616,36.5586994 C172.846029,55.8061676 139,17.8065705 139,17.8065705" id="Fill-17" fill="#EF6EA9"></path>
                    <path d="M219,114.499098 C219,169.452016 172.43824,214 115,214 C57.5617602,214 11,169.452016 11,114.499098 C11,59.5461799 57.5617602,15 115,15 C172.43824,15 219,59.5461799 219,114.499098" id="Fill-19" fill="#EF6EA9"></path>
                    <path d="M167.00552,184.041741 C154.633603,191.868088 130.284792,199.811812 113.742607,199.811812 C77.3176938,199.811812 47.6442143,181.148845 34.0385334,149.010983 C33.0356487,146.639964 34.1287208,144.091978 36.7008673,144.099201 L36.7658023,144.099201 L63.5352455,144.099201 C77.9057161,144.099201 89.554329,132.43733 89.554329,118.050503 C89.554329,103.663677 77.9057161,92 63.5352455,92 L36.7658023,92 C29.1287278,92 11.2048711,123.563618 12.0273808,126.10077 C18.0519034,175.58878 61.8036462,214 114.915044,214 C136.848635,214 157.184105,207.448549 173.926506,196.272439 C181.143307,191.454559 174.337761,179.40444 167.00552,184.041741" id="Fill-21" fill="#D95E9F"></path>
                    <path d="M85,132.992104 C85,132.992104 113.201236,134.007811 121,113" id="Stroke-23" stroke="#D94694" stroke-width="3" stroke-linecap="round" stroke-linejoin="round"></path>
                    <path d="M112,108.746508 C112,108.746508 126.099096,104.325763 128,117" id="Stroke-25" stroke="#D94694" stroke-width="3" stroke-linecap="round" stroke-linejoin="round"></path>
                    <path d="M72.9173972,137 L46.084411,137 C31.6770502,137 20,125.360334 20,111.000901 L20,110.999099 C20,96.6414682 31.6770502,85 46.084411,85 L72.9173972,85 C87.3229498,85 99,96.6414682 99,110.999099 L99,111.000901 C99,125.360334 87.3229498,137 72.9173972,137" id="Fill-27" fill="#F380B5"></path>
                    <path d="M52.9173972,137 L26.084411,137 C11.6770502,137 0,125.360334 0,111.000901 L0,110.999099 C0,96.6414682 11.6770502,85 26.084411,85 L52.9173972,85 C67.3229498,85 79,96.6414682 79,110.999099 L79,111.000901 C79,125.360334 67.3229498,137 52.9173972,137" id="Fill-29" fill="#F699C4"></path>
                    <path d="M20.0008808,126 L20.0008808,126 C16.1357745,126 13,122.728061 13,118.691014 L13,105.308986 C13,101.273778 16.1357745,98 20.0008808,98 C23.8659872,98 27,101.273778 27,105.308986 L27,118.691014 C27,122.728061 23.8659872,126 20.0008808,126" id="Fill-31" fill="#D95E9F"></path>
                    <path d="M54.9991192,126 L54.9991192,126 C51.1340128,126 48,122.728061 48,118.691014 L48,105.308986 C48,101.273778 51.1340128,98 54.9991192,98 C58.8659872,98 62,101.273778 62,105.308986 L62,118.691014 C62,122.728061 58.8659872,126 54.9991192,126" id="Fill-33" fill="#D95E9F"></path>
                    <path d="M42,74 C42,70.1335032 45.1331041,67 48.9991084,67 C52.8651127,67 56,70.1335032 56,74" id="Stroke-35" stroke="#D94694" stroke-width="3" stroke-linecap="round" stroke-linejoin="round"></path>
                    <path d="M99,74 C99,70.1335032 102.134887,67 106.000892,67 C109.866896,67 113,70.1335032 113,74" id="Stroke-37" stroke="#D94694" stroke-width="3" stroke-linecap="round" stroke-linejoin="round"></path>
                    <path d="M414,132 C414,198.8273 358.259536,253 289.4991,253 C220.740464,253 165,198.8273 165,132 C165,65.1745103 220.740464,11 289.4991,11 C358.259536,11 414,65.1745103 414,132" id="Fill-39" fill="#F380B5"></path>
                    <path d="M339.340743,49 C346.885294,49 353,54.854014 353,62.0750733 C353,67.4478209 347.061235,69.5091538 347.061235,66.8296453 C347.061235,59.6085861 344.877237,58.464948 337.362549,59.0422703 C329.991125,59.6085861 327.117956,49 339.340743,49 Z" id="Path" fill="#EF6EA9"></path>
                    <path d="M413.074503,117.384418 C412.323663,111.414035 403.518841,112.115582 403.565656,118.131168 C403.567457,118.418658 403.569257,118.704339 403.569257,118.993637 C403.569257,182.018974 350.923985,233.110775 285.986174,233.110775 C221.046562,233.110775 168.403091,182.018974 168.403091,118.993637 C168.403091,110.759498 169.321385,102.736908 171.028332,95 C167.130083,106.712945 165,119.197954 165,132.169345 C165,198.903117 220.740464,253 289.4991,253 C358.259536,253 414,198.903117 414,132.169345 C414,127.162684 413.684899,122.230157 413.074503,117.384418" id="Fill-42" fill="#EF6EA9"></path>
                    <path d="M235,46 C251.051909,36.4851834 269.943377,31 290.165205,31 C295.893598,31 301.51797,31.4390333 307,32.2879524" id="Stroke-45" stroke="#D94694" stroke-width="8" stroke-linecap="round" stroke-linejoin="round"></path>
                    <path d="M231,43 C247.407162,32.7244091 278.11744,22.7905823 309,28.8429455" id="Stroke-47" stroke="#EF6EA9" stroke-width="3" stroke-linecap="round" stroke-linejoin="round"></path>
                    <path d="M343.621833,3 C343.621833,3 361.023204,16.2277881 352.786265,29.9129389 C344.547515,43.5980897 326.311039,37.2200234 328.126172,25.3518175 C329.977536,13.2638631 345.471386,15.7722119 350.559919,25.1231361 C355.64664,34.4740603 352.409471,45.1934996 344.315642,55" id="Stroke-49" stroke="#D94694" stroke-width="3" stroke-linecap="round" stroke-linejoin="round"></path>
                </g>
                <path d="M431.25,394.499621 L431.749999,394.500379" id="Line" stroke="#340F98" stroke-width="6" stroke-linecap="round" stroke-linejoin="round"></path>
                <path d="M448,394.484446 L468,394.515554" id="Line" stroke="#340F98" stroke-width="6" stroke-linecap="round" stroke-linejoin="round"></path>
            </g>
        </g>
    </g>
</svg>